<svg xmlns="http://www.w3.org/2000/svg" viewBox="0 0 48 48" width="48" height="48">
  <defs>
    <linearGradient id="wan-grad" x1="0%" y1="0%" x2="100%" y2="100%">
      <stop offset="0%" stop-color="#059669" />
      <stop offset="100%" stop-color="#047857" />
    </linearGradient>
    <filter id="wan-glow" x="-20%" y="-20%" width="140%" height="140%">
      <feDropShadow dx="0" dy="2" stdDeviation="3" flood-color="#059669" flood-opacity="0.5"/>
    </filter>
  </defs>
  <!-- Cloud Body shape representing the internet WAN cloud -->
  <path d="M 16,36 C 11.5,36 8,32.5 8,28 C 8,23.8 11.2,20.5 15.3,20.1 C 17,15.3 21.6,12 27,12 C 33.6,12 39,17.4 39,24 C 39,24.3 38.9,24.7 38.9,25 C 41.8,25.8 44,28.4 44,31.5 C 44,35 41.2,37.8 37.7,37.8 L 16,37.8 Z" fill="url(#wan-grad)" stroke="#34D399" stroke-width="2" filter="url(#wan-glow)" />
  <!-- Dynamic network globe grid overlay inside cloud -->
  <path d="M 20,20 C 23,24 28,24 31,20" fill="none" stroke="#A7F3D0" stroke-width="1.5" stroke-dasharray="2,2" />
  <path d="M 18,29 C 22,33 27,33 32,29" fill="none" stroke="#A7F3D0" stroke-width="1.5" stroke-dasharray="2,2" />
  <!-- Center internet nodes -->
  <circle cx="21" cy="25" r="2.5" fill="#FFFFFF" />
  <circle cx="31" cy="27" r="2.5" fill="#FFFFFF" />
  <circle cx="27" cy="31" r="2" fill="#FFFFFF" />
  <line x1="21" y1="25" x2="31" y2="27" stroke="#FFFFFF" stroke-width="1.5" />
  <line x1="21" y1="25" x2="27" y2="31" stroke="#FFFFFF" stroke-width="1.5" />
  <line x1="31" y1="27" x2="27" y2="31" stroke="#FFFFFF" stroke-width="1.5" />
</svg>
